<svg width="696" height="202" viewBox="0 0 696 202" fill="none" xmlns="http://www.w3.org/2000/svg">
<path d="M196.733 158.065C185.407 158.065 176.853 153.561 171.647 149.768L171.275 149.497V128.365L172.762 129.551C181.316 136.459 189.43 139.981 196.902 139.981C205.253 139.981 210.256 135.68 210.256 128.467C210.256 118.646 201.5 111.331 193.758 104.829L192.338 103.644C181.215 94.263 171.647 86.1692 171.647 70.151C171.647 54.1327 182.195 43.499 197.882 43.499C205.625 43.499 213.265 45.4971 220.636 49.4932L221.109 49.7641V69.8123L219.723 68.9318C213.13 64.7664 204.475 61.854 198.694 61.854C190.242 61.854 186.624 64.2923 186.624 69.9816C186.624 76.8563 193.521 82.3425 200.824 88.2011C202.142 89.251 203.495 90.3347 204.813 91.4183C217.322 101.815 225.098 111.67 225.098 128.501C225.098 147.025 214.516 158.099 196.8 158.099L196.733 158.065Z" fill="#1A1A1A"/>
<path d="M273.614 155.593H258.806V63.615H236.154V45.768H296.841V63.615H273.58V155.593H273.614Z" fill="#1A1A1A"/>
<path d="M383.797 155.593H367.332L356.885 121.017H330.379L319.932 155.593H303.467L337.58 45.768H350.8L383.797 155.593ZM335.011 103.373H352.219L343.598 73.4359L334.977 103.373H335.011Z" fill="#1A1A1A"/>
<path d="M421.832 155.593H397.185V45.768H424.198C450.772 45.768 464.836 64.123 464.836 98.8687C464.836 135.443 449.555 155.593 421.832 155.593ZM411.959 137.746H418.349C440.866 137.746 450.062 126.503 450.062 98.8687C450.062 74.4857 441.711 63.615 422.947 63.615H411.993V137.712L411.959 137.746Z" fill="#1A1A1A"/>
<path d="M500.336 155.593H485.527V45.768H500.336V155.593Z" fill="#1A1A1A"/>
<path d="M556.39 157.828C535.902 157.828 524.61 142.352 524.61 114.21V45.7341H539.418V114.21C539.418 131.312 545.132 139.947 556.39 139.947C567.648 139.947 573.362 131.278 573.362 114.21V45.7341H588.17V114.21C588.17 142.318 576.878 157.828 556.39 157.828Z" fill="#1A1A1A"/>
<path d="M695.074 155.593H680.435L678.203 89.0139L658.053 155.593H645.781L625.664 89.2848L623.602 155.593H608.963L612.986 45.768H626.712L652.001 127.214L677.155 45.768H691.05L695.074 155.593Z" fill="#1A1A1A"/>
<path d="M57.7453 195.215C28.9741 195.215 5.57844 171.814 5.51082 143.029C5.51082 133.276 8.21552 123.929 13.1854 115.835V141.505C13.1854 166.125 33.2002 186.173 57.7791 186.173V180.653C36.2092 180.653 18.6962 163.077 18.6962 141.505V108.419C19.9133 107.03 21.1981 105.709 22.5842 104.456C24.579 105.98 26.6413 107.403 28.805 108.656V139.778C28.805 139.778 28.805 139.846 28.805 139.879C28.805 139.913 28.805 139.947 28.805 139.981C28.805 155.999 41.7876 169.004 57.7791 169.004V163.145C44.9656 163.145 34.3835 152.714 34.3159 139.879C34.3835 126.977 44.8642 116.479 57.7791 116.479V110.959C49.3269 110.959 41.3819 108.927 34.3159 105.371V78.7189C39.59 85.9999 48.1436 90.7749 57.7791 90.7749V85.2549C44.8304 85.2549 34.3159 74.7228 34.3159 61.7524C34.3159 48.782 44.8642 38.2499 57.7791 38.2499V32.5606C41.889 32.5606 28.805 45.4971 28.805 61.4137V102.187C25.0523 99.6815 21.6714 96.7013 18.6962 93.3487V59.7543C18.6962 38.1483 36.243 20.6061 57.7791 20.6061V15.0861C33.2002 15.0861 13.1854 35.1343 13.1854 59.7543V85.9322C8.31695 77.9738 5.51082 68.6609 5.51082 58.6707C5.51082 29.8175 28.9403 6.315 57.7791 6.315V0.524048C25.8975 0.557913 0 26.4987 0 58.3997V142.893C0 142.893 0 142.995 0 143.063C0 143.097 0 143.131 0 143.164C0 175.065 25.8975 201.006 57.7453 201.006V195.215ZM43.5457 114.751C39.8943 116.817 36.7163 119.662 34.2483 123.048V111.5C37.2234 112.821 40.3338 113.939 43.5457 114.751ZM5.51082 83.2907C7.57316 87.6593 10.1426 91.7231 13.1854 95.4144V106.421C10.1426 110.146 7.53935 114.176 5.51082 118.511V83.2907Z" fill="#1A1A1A"/>
<path d="M115.49 58.3997C115.49 26.4987 89.5929 0.557922 57.7451 0.557922V6.34888C86.5502 6.34888 110.013 29.8175 110.013 58.7045C110.013 68.5254 107.309 77.9061 102.339 86.0338V59.7882C102.339 35.1682 82.3241 15.12 57.7451 15.12V20.64C79.3151 20.64 96.828 38.2161 96.828 59.7882V93.4503C95.6109 94.8049 94.3262 96.1256 92.94 97.3786C90.9453 95.8547 88.883 94.4324 86.7192 93.1793V61.4815C86.7192 45.5648 73.8043 32.5944 57.8804 32.5944H57.7451V38.3177C70.6939 38.3177 81.2084 48.8497 81.2084 61.8201C81.2084 74.7905 70.6601 85.3226 57.7451 85.3226V90.8426C66.1973 90.8426 74.1424 92.8746 81.2084 96.4304V123.082C76.2047 116.174 68.2596 111.534 59.2327 111.094H58.8608C58.8608 111.094 58.6918 111.094 58.6241 111.094C58.4551 111.094 58.2184 111.094 57.7451 111.094V116.614C70.6601 116.614 81.1408 127.112 81.2084 140.015C81.1408 152.85 70.7277 163.28 57.8804 163.28H57.7451V169.173C73.7366 169.173 86.7192 156.169 86.7192 140.15C86.7192 140.117 86.7192 140.083 86.7192 140.049C86.7192 140.015 86.7192 139.981 86.7192 139.947V99.7492C90.472 102.255 93.8528 105.235 96.828 108.588V141.607C96.828 163.213 79.2813 180.755 57.7451 180.755V186.275C82.3241 186.275 102.339 166.227 102.339 141.607V116.005C107.173 123.929 109.98 133.208 110.013 143.164C109.912 171.95 86.5164 195.317 57.7451 195.317V201.108C89.5929 201.108 115.49 175.167 115.49 143.266C115.49 143.232 115.49 143.198 115.49 143.164C115.49 143.097 115.49 143.029 115.49 142.995V58.5013V58.3997ZM81.2084 90.3347C78.2332 89.0139 75.1228 87.8964 71.911 87.0836C75.5623 85.0178 78.7403 82.1731 81.2084 78.7866V90.3347ZM109.98 118.578C107.917 114.21 105.348 110.146 102.305 106.455V95.4483C105.382 91.7231 107.951 87.6593 109.98 83.3584V118.578Z" fill="#239920"/>
</svg>
