<?xml version="1.0" encoding="UTF-8"?><svg id="_レイヤー_2" xmlns="http://www.w3.org/2000/svg" xmlns:xlink="http://www.w3.org/1999/xlink" viewBox="0 0 152.87 36"><defs><style>.cls-1{fill:url(#_名称未設定グラデーション);}.cls-1,.cls-2,.cls-3,.cls-4,.cls-5{stroke-width:0px;}.cls-2{fill:url(#_名称未設定グラデーション_2);}.cls-3{fill:#f7b2da;}.cls-4{fill:#3d4252;}.cls-5{fill:#71ecf3;}</style><linearGradient id="_名称未設定グラデーション" x1="19.49" y1="9.37" x2="33.84" y2="18.54" gradientTransform="translate(0 38) scale(1 -1)" gradientUnits="userSpaceOnUse"><stop offset="0" stop-color="#12d6b0"/><stop offset="1" stop-color="#90e2dc"/></linearGradient><linearGradient id="_名称未設定グラデーション_2" x1="-5.02" y1="17.86" x2="23.69" y2="34.73" gradientTransform="translate(0 38) scale(1 -1)" gradientUnits="userSpaceOnUse"><stop offset="0" stop-color="#ffa441"/><stop offset="1" stop-color="#ffeb0d"/></linearGradient></defs><g id="_レイヤー_1-2"><path class="cls-4" d="m146.24,16.53c-5.1-2.26-5.86-2.59-5.86-4.25,0-1.32,1.23-2.18,2.49-2.18,1.55,0,2.13.87,2.4,1.71.18.58.69,1,1.3,1h4.63c.8,0,1.44-.7,1.33-1.49-.17-1.23-.57-2.58-1.76-4-1.84-2.14-4.86-3.16-7.66-3.16-4.75,0-9.92,2.97-9.92,8.2s4.94,7.18,6.93,7.97c4.37,1.8,5.55,2.26,5.55,4.1,0,1.28-1.03,2.67-2.76,2.67-.84,0-2.62-.47-2.91-3.06-.03-.23-.04-.74-.04-.74h-7.2v.9c0,3.57,2.03,8.84,10.23,8.84,7.51,0,9.88-4.48,9.88-8.54,0-3.23-1.34-5.64-6.63-7.97h0Z"/><path class="cls-4" d="m108.71,4.68h-4.18c-.76,0-1.38.63-1.36,1.39l.28,16.03-.08.08-10.56-16.85c-.25-.4-.69-.64-1.16-.64h-4.13c-.75,0-1.36.61-1.36,1.36v25.11c0,.75.61,1.36,1.36,1.36h4.19c.76,0,1.37-.62,1.36-1.38l-.18-15.51.08-.04,10.4,16.3c.25.39.68.63,1.15.63h4.17c.75,0,1.36-.61,1.36-1.36V6.04c0-.75-.61-1.36-1.36-1.36h0Z"/><path class="cls-4" d="m130.09,4.68h-15.66c-.75,0-1.36.61-1.36,1.36v3.52c0,.75.61,1.36,1.36,1.36h4.23v20.23c0,.75.61,1.36,1.36,1.36h4.51c.75,0,1.36-.61,1.36-1.36V10.92h4.19c.75,0,1.36-.61,1.36-1.36v-3.52c0-.75-.61-1.36-1.36-1.36h0Z"/><path class="cls-4" d="m59.94,15.66h-8.88v-4.74h12.04c.57,0,1.07-.35,1.27-.88l1.34-3.52c.34-.89-.32-1.85-1.27-1.85h-20.31v26.47c0,.75.61,1.36,1.36,1.36h4.21c.75,0,1.36-.61,1.36-1.36v-9.24h7.34c.54,0,1.03-.32,1.25-.82l1.54-3.52c.39-.9-.27-1.91-1.25-1.91h0Z"/><path class="cls-4" d="m79.32,5.81c-.11-.66-.68-1.13-1.34-1.13h-5.51c-.54,0-1.03.32-1.25.81l-11.23,25.11c-.4.9.26,1.92,1.25,1.92h3.3c.55,0,1.05-.33,1.26-.84l2.34-5.63h8.77l.74,5.29c.09.67.67,1.18,1.35,1.18h3.26c.85,0,1.49-.76,1.34-1.59l-4.29-25.11h0Zm-8.94,14.85l4.33-10.42,1.46,10.42h-5.79Z"/><path class="cls-1" d="m16.92,26.36c.06-.76-.94-1.88-1.76-2.54-.76-.61-.82-1.73.03-2.22,5.96-3.44,10.98-5.78,18.19-6.66,2.43-.3,2.7,2.93,2.63,3.82-.34,4-1.14,6.05-2.76,8.85-1.78,3.08-5.05,5.64-8.27,7-3.4,1.44-7.31,1.77-11.01.94,2.43-2.28,4.04-5.87,2.95-9.19h0Z"/><path class="cls-5" d="m6.76,32.05s-.51-.43-.56-.46c-1.52-1.37-2.73-2.7-3.77-4.59-.6-1.08-.04-2.51,1.22-2.06,2.59.92,5.23,1.6,7.92,1.96,1.24.16,2.53.33,3.78.3,1.1-.02,1.53-.36,1.57-.83,1.09,3.32-.52,6.91-2.95,9.19-2.59-.58-5.08-1.74-7.21-3.5h0Z"/><path class="cls-2" d="m.06,17.24c.34-4,1.14-6.05,2.76-8.85,1.78-3.08,5.05-5.64,8.27-7,5.78-2.44,13.05-1.7,18.22,2.57.04.03.37.31.5.42-4.06-.5-8.59,1-10.47,4.83-.7.7.56,2.17,1.56,2.98.76.61.82,1.73-.03,2.22-5.96,3.44-15.6,7.53-19.09,7.38C-.3,21.7-.02,18.13.06,17.24H.06Z"/><path class="cls-3" d="m29.8,4.37s.05.04.05.04c1.52,1.37,2.73,2.7,3.77,4.59.6,1.08.04,2.51-1.22,2.06-2.59-.92-5.23-1.6-7.92-1.96-1.24-.16-2.53-.33-3.78-.3-.71.01-1.14.16-1.37.39,1.89-3.82,6.4-5.33,10.47-4.83h0Z"/></g></svg>