<?xml version="1.0" encoding="UTF-8"?>
<svg id="_レイヤー_1" xmlns="http://www.w3.org/2000/svg" version="1.1" viewBox="0 0 844.2 95.1">
  <!-- Generator: Adobe Illustrator 29.2.1, SVG Export Plug-In . SVG Version: 2.1.0 Build 116)  -->
  <defs>
    <style>
      .st0 {
        fill: none;
      }

      .st1 {
        fill: #ee633b;
      }

      .st2 {
        fill: #309fc6;
      }
    </style>
  </defs>
  <g>
    <path class="st0" d="M284.7,42.9c-2.9-4.1-10.5-1.3-10.7,3.7-.7,4-3.3,11.5,3.8,11.1,1.7,0,3.3-.7,4.6-2.1l2.3-12.7h0Z"/>
    <path class="st0" d="M521.5,55.6l2.3-12.7c-2.6-4.1-10.7-1.4-10.7,3.7l-1,5.7c-1.8,5.4,6.2,7.3,9.4,3.3Z"/>
    <path class="st0" d="M727.4,54.4c3.3-2.9,4.3-14.2,5.3-19h0v-.4l-17.4,17.4c.8,5.6,9,5.6,12.1,2h0Z"/>
    <path class="st0" d="M717.4,35.4h0l-1.8,9.8,17.1-17.1c-4-8.3-14.6-2.5-15.3,7.3Z"/>
    <path class="st0" d="M213,55.6l2.3-12.7c-2.6-4.1-10.7-1.4-10.7,3.7l-1,5.7c-1.8,5.4,6.2,7.3,9.4,3.3Z"/>
    <path class="st0" d="M367.2,52.3c.5-3.8,3.3-11.6-3.3-11.6-6-.3-6.5,7.2-7.2,11.6-1.7,8.2,9.9,7.1,10.5,0Z"/>
    <path class="st0" d="M479.4,36.1h.1c3.1-3.3,2.1-11.8-3.4-11.2h-5.7l-2,13.1c3,0,9.2.6,11-1.9Z"/>
    <path class="st1" d="M190.5,53.9c-4.6,14.4,15.9,20.2,23.1,8.6.5,7.1,12.5,7.7,17.4,3.1l.4-8.5c-1.9,1.1-6.3,1.4-5.3-2.1l4.2-23.8h-11.5l-.4,2.3c-3.8-4.9-16.6-3.9-20.8.8-5.1,4-6,13.4-7.1,19.7h0ZM203.6,52.3l1-5.7c0-5.1,8.1-7.8,10.7-3.7l-2.3,12.7c-3.2,4-11.2,2.1-9.4-3.3Z"/>
    <path class="st1" d="M246.7,68.7h-.1c3,0,5.7-1.1,8.1-3l.4-8.5c-2,1.2-6.2,1.2-5.3-2.1l4.2-23.8h-12.8l-4.5,25.5c-1.4,6.8,1.1,12.4,10,11.9h0Z"/>
    <path class="st1" d="M319.7,31.2h-12.8c-.2,6.5-7.4,28.4-3.5,34.2,2.5,4.1,12.9,4.3,17,.2l.4-8.5c-2,1.2-6.2,1.2-5.3-2.1l4.2-23.8h0Z"/>
    <path class="st1" d="M346.2,65.4h0c10.2,6.5,32.2,4.2,33.5-11.4.8-6,4.5-15.8-1.3-20.2-10.5-7.9-32.7-2.7-33.3,11.4-.8,5.9-4.5,15.9,1.1,20.2h0ZM356.7,52.3c.7-4.4,1.2-11.9,7.2-11.6,6.6,0,3.8,7.8,3.3,11.6-.6,7.1-12.2,8.2-10.5,0Z"/>
    <path class="st1" d="M402.2,43.4c13.6-9.6,5.9,10.6,6,16.5-.9,9,12.4,11.1,18.4,5.7l.4-8.5c-2,1.2-6.2,1.2-5.3-2.1.5-3.7,2.6-13,2.4-16.7.5-10.7-16.4-10.2-21.4-2.6l.8-4.5h-11.9l-6.4,36.3h12.8l4.2-24.1Z"/>
    <path class="st1" d="M510.9,68.7h0c4.9,0,8.6-2.1,11.1-6.1.5,7.1,12.5,7.7,17.4,3.1l.4-8.5c-1.9,1.1-6.3,1.4-5.3-2.1l4.2-23.8h-11.5l-.4,2.3c-8.6-8.1-25.7-.8-26.4,11.6-2.2,10.1-5.2,24,10.4,23.5h0ZM512.1,52.3l1-5.7c0-5.1,8.1-7.8,10.7-3.7l-2.3,12.7c-3.2,4-11.2,2.1-9.4-3.3Z"/>
    <path class="st1" d="M557.5,24.3c9.5,1.8,13.3-14.9,2.6-14.7-9.3-1.7-13.3,14.9-2.6,14.7Z"/>
    <path class="st1" d="M555.2,68.7h0c3,0,5.7-1.1,8.1-3l.4-8.5c-2,1.2-6.2,1.2-5.3-2.1l4.2-23.8h-12.8l-4.5,25.5c-1.4,6.8,1.1,12.4,10,11.9h-.1Z"/>
    <path class="st1" d="M247.4,24.3c9.5,1.8,13.3-14.9,2.6-14.7-9.3-1.7-13.3,14.9-2.6,14.7Z"/>
    <path class="st1" d="M579.2,68.7h0c3,0,5.7-1.1,8.2-3l.4-8.5c-1.9,1.1-6.3,1.4-5.3-2.1l7.9-44.8h-12.8l-8.2,46.5c-1.4,6.8,1,12.4,9.9,11.9h-.1Z"/>
    <path class="st1" d="M594.3,65.6h0c4.9,4.3,22.8,3.8,28.1-.3,7.2-4.1,6.7-16.6-2.2-18-3.9-1.6-11.5,0-13.3-4-1.3-4.4,12.7-5,9.4.4h12.4c9.3-15.1-21.6-16.4-29.4-9.9-10.4,7.9-4.8,20.9,8.1,20.2,17.4,1.1-.7,9.3-3.2,2.3l-12.6.2c-.7,3.4,0,7.1,2.8,9.1h0Z"/>
    <path class="st1" d="M650.9,67.4h39.5l2.1-11.7h-20.2c69-37.8-20.2-66.3-16.1-18.4h13.4c-5.7-15.7,22.3-18.2,12.4-1.9-12.5,11-30.1,10.7-31.1,32h0Z"/>
    <polygon class="st1" points="692.5 55.6 692.5 55.7 692.5 55.7 692.5 55.6"/>
    <polygon class="st1" points="790.5 55.6 790.5 55.7 790.5 55.7 790.5 55.6"/>
    <path class="st1" d="M748.9,67.4h39.5l2.1-11.7h-20.2c69-37.8-20.2-66.3-16.1-18.4h13.4c-5.7-15.7,22.3-18.2,12.4-1.9-12.5,11-30.1,10.7-31.1,32h0Z"/>
    <path class="st1" d="M825.7,31.6h0c-4.5,0-7.8.7-10,1.8l1.3-7.5h17.1l10.1-11.9h-37.9l-5.5,31.4h12.9c7.5-7.3,18.9,1.4,11.2,10.1-3.4,3.6-13.5,3.2-12.4-3.2h-13.6c-5.6,20,26.3,21.3,36.1,10.9,10.1-9.4,7.7-32.5-9.3-31.6h0Z"/>
    <path class="st1" d="M277.8,57.7c-7.1.4-4.5-7.1-3.8-11.1.2-5,7.8-7.8,10.7-3.7l-2.3,12.7c-1.3,1.4-2.9,2.1-4.6,2.1h0ZM290.6,81.3c1.6-8,7.4-41.3,8.9-50.1h-11.3l-.5,2.4c-27.3-20.9-44.3,50.2-7.2,31.8-.8,4.8-2.1,12.1-2.9,15.9h-89.6c-2.9-8.6-9.5-31.7-12-40.7l17.3-27.4h-14.4l-14.4,22.7h-4.8l4-22.7c-7.1,0-21.6,0-28.8-.1l13.5,9.5-6.3,35.7-13.2,9.3h25.2l3.6-19.9h6c3.1,11.4,10.5,35.9,14.2,47.4h640.7l19.8-13.7H290.6Z"/>
    <path class="st1" d="M439.1,67.6h24.6l3.1-20.3h4.7l6.3,20.3h15.3l-6.9-22.1c7.9-3.6,12.7-21.7,6.7-28.6h0c-5-6.2-26.6-3.1-34.2-3.8h-15.3c0-.1,13.6,9.5,13.6,9.5l-6.5,36.9-11.5,8.1h.1,0ZM470.4,24.9h5.7c5.5-.6,6.5,7.9,3.4,11.2h-.1c-1.8,2.5-8,1.9-11,1.9l2-13.1Z"/>
    <path class="st1" d="M719.3,68.6c15.2,0,22.6-8,25.2-22.9,3.2-14.7,6.3-33.6-15.4-33.1h0c-19.6-.8-25.3,15.7-27,33.1-2.6,12.9,1.9,23.6,17.3,22.9h0ZM717.4,35.3h0c.7-9.7,11.3-15.5,15.3-7.2l-17.1,17.1s1.8-9.9,1.8-9.9ZM732.7,35v.4h0c-1,4.8-2,16.1-5.3,19-3.1,3.6-11.3,3.6-12.1-2l17.4-17.4h0Z"/>
    <path class="st1" d="M314.2,30.2v.2c1.6-12.1,2.9-13.6,15.2-15.2-12.3-1.6-13.6-2.9-15.2-15.2-1.6,12.3-2.9,13.6-15.2,15.2,12.2,1.6,13.6,2.9,15.2,15Z"/>
  </g>
  <g>
    <path class="st0" d="M33,74.4l20.7,11.9,15.6-17.9-7.3-8.3c-.2,0-.5.3-.6.4-10.1,5.7-19.7,10.6-28.3,14.1h0Z"/>
    <path class="st0" d="M78,22.9h.6l-1.3-.6c-.4,0-.6.2-1,.4l1.6.3h0Z"/>
    <path class="st0" d="M56.2,53.2l-2.7-3.1-24.1,4.6-.3,16.2c8.5-2.9,19.2-7.7,30.2-14l-3.1-3.6h0Z"/>
    <path class="st0" d="M91,25.3h0s.2.2.3.3h0l.2.2h0v.3h0v.2h0v.4h0v.2h0v5.5c4.6-4.8,6.6-8.9,5.1-11.3-1.5-2.5-6.7-2.6-14.4-.7l8.1,4.7h0l.6.4v-.2Z"/>
    <path class="st0" d="M17.3,70l-.2-.2h0c-.4-.5-.6-1-.6-1.6v-9.3c-5.5,5.6-8.1,10.1-6.6,12.7,1.4,2.3,5.8,2.6,12.3,1.2l-4.8-2.7h-.2,0Z"/>
    <path class="st0" d="M25,69.8l.2-13.8v-2.7l-.5-1.7c-1.5,1.3-2.9,2.3-4.3,3.6v12l4.7,2.6h0Z"/>
    <path class="st0" d="M20.4,39.3v13.3c1.3-.9,2.3-1.8,3.7-2.8l-3.7-10.6h0Z"/>
    <path class="st0" d="M64.4,24.6l-.5,1.4c.7-.4,1.5-.7,2.1-1.1l-1.7-.4h0Z"/>
    <path class="st0" d="M54.1,8.8l-4.9,2.8,14.5,8.7,9.1,1.6c.8-.4,1.6-.6,2.2-1l-21.1-12.2h.2Z"/>
    <path class="st0" d="M72.6,65.7l15.3-8.8v-14.2c-6.3,4.9-13.8,10.1-22.2,15.1l6.8,8h0Z"/>
    <polygon class="st0" points="63.8 81 87.8 67.2 87.8 61.7 73.4 70 63.8 81"/>
    <path class="st2" d="M107.7,16.7c-2.4-4.2-13.1-3-27.5,2.3l2.6,1.5c7.5-1.9,12.8-1.9,14.4.7,1.4,2.3-.7,6.4-5.1,11.3-1.3,1.3-2.6,2.7-4.1,4.1-6.1,5.6-14.7,11.9-24.9,18-1.2.7-2.3,1.4-3.6,2.1h0c-11,6.4-21.5,11.2-30.2,14-2.5.9-4.8,1.5-7.1,2-6.5,1.5-11,1.3-12.3-1.2-1.5-2.5,1.2-7.2,6.6-12.6v-3.1C4.6,65.8-1.9,74.5.5,78.6c2.3,4.2,13.1,3,27.5-2.3,1.6-.6,3.2-1.3,4.9-1.9,8.6-3.5,18.4-8.3,28.4-14.1.2,0,.5-.3.6-.4,1.3-.7,2.4-1.4,3.6-2.1,8.3-4.9,15.8-10.1,22.2-15.1,1.5-1.2,2.8-2.2,4.1-3.3,11.8-10,18.2-18.5,15.8-22.7h0Z"/>
    <g>
      <path class="st1" d="M87.8,42.7v14.2l-15.3,8.8-6.8-8c-1.3.7-2.3,1.4-3.6,2.1l7.3,8.3-15.6,17.9-20.7-11.9c-1.6.7-3.3,1.4-4.9,1.9l25,14.5h1.4c.2,0,.3,0,.4-.2h0l35.7-20.7c.6-.4,1.1-1.1,1.1-1.8v-28.9c-1.4,1.2-2.7,2.1-4.1,3.3h0s.2.4.2.4ZM87.8,67.2l-24,13.8,9.5-11,14.4-8.3v5.5h0Z"/>
      <path class="st1" d="M92,27h0v-.2h0v-.4h0v-.2h0v-.3h0s0-.2-.2-.3h0s-.2-.2-.3-.3h0l-8.1-4.8-2.6-1.5-25.6-14.6c-.4-.2-.7-.3-1.1-.3s-.7,0-1.1.3L17.4,25.3h0s-.3.2-.4.4h0s0,.2-.2.2h0v.3h0v.3h0v.5h0v41.5c0,.5.2,1.1.6,1.5h0l.2.2h0l4.8,2.8c2.1-.5,4.6-1.2,7.1-2l.3-16.1,24.1-4.6,2.7,3.1,3.1,3.6h0c1.3-.7,2.3-1.4,3.6-2.1l-6.3-7.3,6.6-19.5v-.2l.7-1.7.4-1.4,1.7.4,2.8.5,18.8,3.3v7.8c1.6-1.4,2.9-2.8,4.1-4.1v-5.5h-.2.2ZM25.2,55.9l-.2,13.8-4.7-2.6v-27.7l3.7,10.6.6,1.7.6,1.7v2.7h0v-.2ZM58.3,29.8l-.2.6-5.3,15.6-24.1,4.6-.6-1.6-.5-1.6-6.7-19.3,24.2-14,15.3,9.2-1.8,5.4-.4,1.4h0s0-.3,0-.3ZM78,22.9l-1.6-.3-3.5-.6-9.2-1.6-14.5-8.7,4.8-2.8,21.1,12.2,2.1,1.3,1.3.7h-.7Z"/>
    </g>
  </g>
</svg>